<?xml version="1.0" encoding="UTF-8" standalone="no"?>
<!-- Created with Inkscape (http://www.inkscape.org/) -->

<svg
   width="47.650295mm"
   height="36.380142mm"
   viewBox="0 0 47.650295 36.380142"
   version="1.1"
   id="svg5"
   inkscape:version="1.2.2 (732a01da63, 2022-12-09)"
   sodipodi:docname="driehoek.svg"
   xmlns:inkscape="http://www.inkscape.org/namespaces/inkscape"
   xmlns:sodipodi="http://sodipodi.sourceforge.net/DTD/sodipodi-0.dtd"
   xmlns="http://www.w3.org/2000/svg"
   xmlns:svg="http://www.w3.org/2000/svg">
  <sodipodi:namedview
     id="namedview7"
     pagecolor="#ffffff"
     bordercolor="#000000"
     borderopacity="0.25"
     inkscape:showpageshadow="2"
     inkscape:pageopacity="0.0"
     inkscape:pagecheckerboard="0"
     inkscape:deskcolor="#d1d1d1"
     inkscape:document-units="mm"
     showgrid="false"
     inkscape:zoom="1.9974549"
     inkscape:cx="290.36952"
     inkscape:cy="114.89621"
     inkscape:window-width="1920"
     inkscape:window-height="991"
     inkscape:window-x="-9"
     inkscape:window-y="-9"
     inkscape:window-maximized="1"
     inkscape:current-layer="layer1" />
  <defs
     id="defs2" />
  <g
     inkscape:label="Layer 1"
     inkscape:groupmode="layer"
     id="layer1"
     transform="translate(-12.512655,-10.729088)">
    <path
       style="fill:none;fill-rule:evenodd;stroke:#000000;stroke-width:2;stroke-dasharray:none"
       d="m 33.777359,11.788961 c -2.484401,5.615761 -4.396232,11.481044 -6.887932,17.08737 -0.650651,1.463963 -1.564529,2.795407 -2.251824,4.238725 -0.204454,0.429353 -0.308357,0.903783 -0.529841,1.324605 -0.222437,0.42263 -0.552613,0.780489 -0.794761,1.192141 -0.200233,0.340395 -0.318957,0.725781 -0.529841,1.059683 -0.541543,0.85744 -2.442877,3.237637 -2.914125,3.708884 -0.668163,0.668163 -1.583662,1.053822 -2.251824,1.721985 -0.06981,0.06981 -0.05537,0.203242 -0.132461,0.264919 -0.15419,0.123352 -0.369161,0.150149 -0.529841,0.264922 -0.451088,0.322205 -0.793039,0.9255 -1.192141,1.324602 -0.603068,0.603068 -1.093862,1.22632 -1.721984,1.854444 -0.05748,0.05748 -0.452849,0.34191 -0.52984,0.264919 -0.01032,-0.01032 0.52984,-1.243441 0.52984,-1.457063 0,-0.425865 0.270996,-0.478798 0.397381,-0.794761 0.167551,-0.149423 -0.05585,-0.362291 0,-0.529841 0.09913,-0.297392 0.246236,-0.360013 0.397381,-0.6623 0.24887,-0.497742 0.443828,-1.121613 0.794761,-1.589524 0.238858,-0.318476 0.450717,-0.574579 0.662301,-0.927221 0.635809,-1.059683 -1.324602,1.589524 0.794762,-1.589522 0.08831,-0.132461 0.295465,-0.142623 0.39738,-0.264922 0.126411,-0.151693 0.136416,-0.379918 0.264921,-0.529841 0.143673,-0.167619 0.373735,-0.241274 0.529841,-0.39738 0.243845,-0.243846 0.413324,-0.556157 0.662301,-0.794761 3.580671,-3.431477 7.62383,-6.532925 11.92142,-9.007295 2.534541,-1.459282 5.152117,-3.151709 7.947615,-4.106268 2.193673,-0.74906 4.803772,-1.240707 7.152851,-1.324603 1.809136,-0.06461 3.62322,-0.09771 5.430869,0 2.747717,0.148526 1.903106,0.49619 4.76857,0.397381 0.06361,-0.0022 1.664057,-0.03727 2.119363,-0.26492 0.14239,-0.0712 0.24957,-0.205796 0.39738,-0.264921 0.09288,-0.03715 0.707025,-0.161706 0.397383,-0.26492 -0.715597,-0.238533 -3.617378,0.195881 -4.238728,0.26492 -1.081244,0.120138 -3.083872,0.176017 -4.106267,0.264921 -1.282444,0.111516 -2.558701,0.288219 -3.841348,0.39738 -5.585362,0.47535 -11.147203,0.291313 -16.689988,-0.529841 -1.401757,-0.207667 -2.99666,-0.303728 -4.371188,-0.662301 -0.500067,-0.130452 -0.962651,-0.379368 -1.457063,-0.529841 -0.522485,-0.159017 -1.068725,-0.232918 -1.589522,-0.39738 -0.719473,-0.227202 -1.403588,-0.55617 -2.119364,-0.794762 -0.904906,-0.301635 -2.111527,-0.654464 -2.781665,-1.324602 -0.005,-0.005 -0.860079,-0.397381 -0.662301,-0.397381 0.06244,0 0.07788,0.102136 0.13246,0.13246 0.345222,0.191791 0.692109,0.385438 1.059682,0.529842 0.870806,0.342102 1.777227,0.588119 2.649204,0.927221 1.513111,0.588432 2.987711,1.273334 4.503649,1.854443 1.403836,0.538138 4.74087,1.558936 6.225629,2.251824 1.490091,0.695375 6.919855,3.524814 8.742376,4.636109 0.648581,0.395475 1.225857,0.898062 1.854443,1.324602 0.608079,0.412625 1.224307,0.814059 1.854444,1.192141 0.253981,0.152389 0.553741,0.225224 0.79476,0.39738 1.11773,0.79838 2.14072,1.895028 3.046588,2.914126 0.718105,0.807871 1.621472,1.501791 2.251823,2.384285 0.332182,0.465053 0.712182,1.143921 0.794761,1.721982 0.01873,0.13113 -0.03213,0.268875 0,0.397381 0.05767,0.230674 0.207251,0.431628 0.264919,0.662302 0.11815,0.472599 0.07115,2.018699 0,2.516743 -0.01397,0.09774 -0.113096,0.168108 -0.132458,0.264922 -0.02725,0.136271 -0.140629,1.129996 -0.264922,1.192141 -1.134888,0.567444 -4.617463,-2.602574 -5.165947,-3.046584 -2.375779,-1.923249 -4.624737,-3.89431 -6.623013,-6.225633 -2.436199,-2.842231 -4.344995,-6.444964 -5.695789,-9.934516 -0.553876,-1.430843 -0.498845,-2.891596 -0.794763,-4.371188 -0.09785,-0.489263 -0.207084,-0.671623 -0.264919,-1.192142 -0.02925,-0.2633 0.06425,-0.53775 0,-0.794761 -0.28366,-1.134641 -0.219504,-0.482531 -0.662303,-1.589523 -0.221821,-0.554557 -0.386111,-1.27953 -0.529841,-1.854443 -0.02545,-0.101847 -0.128751,-1.32831 0,-1.457063 0.03122,-0.03122 0.10124,0.03122 0.132461,0 0.04415,-0.04415 0.08831,-0.353227 0.132461,-0.39738 0.03122,-0.03122 0.101238,0.03122 0.132461,0 0.06623,-0.06623 0.06623,-0.198691 0.132458,-0.264921 0.09873,-0.09873 0.281207,-0.05501 0.397381,-0.13246 0.103912,-0.06927 0.15322,-0.20907 0.264922,-0.26492 0.232944,-0.116473 0.662299,-0.0073 0.662299,0.26492"
       id="path1971" />
  </g>
</svg>
